<svg width="16" height="15" viewBox="0 0 16 15" fill="none" xmlns="http://www.w3.org/2000/svg">
<path d="M12.4651 15C9.33951 15 9.3023 9.4275 9.3023 9.1875C9.3023 8.88 9.55532 8.625 9.86044 8.625C10.1656 8.625 10.4186 8.88 10.4186 9.1875C10.4186 9.2325 10.4781 13.875 12.4651 13.875C12.7702 13.875 13.0232 14.13 13.0232 14.4375C13.0232 14.745 12.7702 15 12.4651 15ZM7.99997 15C7.69486 15 7.44183 14.745 7.44183 14.4375V9.1875C7.44183 8.88 7.69486 8.625 7.99997 8.625C8.30509 8.625 8.55811 8.88 8.55811 9.1875V14.4375C8.55811 14.745 8.30509 15 7.99997 15ZM3.53486 15C3.22974 15 2.97672 14.745 2.97672 14.4375C2.97672 14.13 3.22974 13.875 3.53486 13.875C5.52183 13.875 5.58137 9.2325 5.58137 9.1875C5.58137 8.88 5.83439 8.625 6.13951 8.625C6.44462 8.625 6.69765 8.88 6.69765 9.1875C6.69765 9.4275 6.66044 15 3.53486 15ZM13.4325 10.125H12.4651C12.16 10.125 11.9069 9.87 11.9069 9.5625C11.9069 9.255 12.16 9 12.4651 9H13.4325C13.8418 9 14.199 8.73 14.3181 8.34L14.6828 7.125H1.30974L1.67439 8.3325C1.79346 8.73 2.15067 8.9925 2.55997 9H3.52741C3.83253 9 4.08555 9.255 4.08555 9.5625C4.08555 9.87 3.83253 10.125 3.52741 10.125H2.55997C1.65207 10.125 0.87067 9.54 0.602763 8.6625L0.02974 6.7425C0.02974 6.7425 0.0148563 6.6825 0.00741443 6.6525C0.00741443 6.6225 0.00741443 6.585 0.00741443 6.555V1.0125C-2.7427e-05 0.4575 0.453926 0 1.00462 0H14.9953C15.546 0 16 0.4575 16 1.0125V6.5475C16 6.5475 16 6.615 16 6.645C16 6.675 15.9851 6.705 15.9776 6.735L15.3897 8.6625C15.1293 9.5325 14.3404 10.125 13.4325 10.125ZM1.11625 6H14.8837V1.125H1.11625V6ZM13.2093 4.125H12.4651C12.16 4.125 11.9069 3.87 11.9069 3.5625C11.9069 3.255 12.16 3 12.4651 3H13.2093C13.5144 3 13.7674 3.255 13.7674 3.5625C13.7674 3.87 13.5144 4.125 13.2093 4.125Z" fill="black"/>
</svg>
