<svg width="20" height="20" viewBox="0 0 20 20" fill="none" xmlns="http://www.w3.org/2000/svg">
<path fill-rule="evenodd" clip-rule="evenodd" d="M9.26685 1.66675H9.80673C12.4901 1.66675 14.6657 3.84233 14.6657 6.52572V12.4645H9.26685V1.66675ZM10.3466 2.7848V7.0656H13.5859V6.52572C13.5859 4.62197 12.178 3.0468 10.3466 2.7848ZM13.5859 8.14537H10.3466V11.3847H13.5859V8.14537Z" fill="#3C3C3C"/>
<path fill-rule="evenodd" clip-rule="evenodd" d="M10.3232 1.66675H9.7833C7.09991 1.66675 4.92433 3.84233 4.92433 6.52572V12.4645H10.3232V1.66675ZM9.24341 2.7848V7.0656H6.0041V6.52572C6.0041 4.62197 7.41207 3.0468 9.24341 2.7848ZM6.0041 8.14537H9.24341V11.3847H6.0041V8.14537Z" fill="#3C3C3C"/>
<path fill-rule="evenodd" clip-rule="evenodd" d="M14.6602 17.3241V11.9253H15.74V17.3241H14.6602Z" fill="#3C3C3C"/>
<path fill-rule="evenodd" clip-rule="evenodd" d="M12.501 17.3241V11.9253H13.5807V17.3241H12.501Z" fill="#3C3C3C"/>
<path fill-rule="evenodd" clip-rule="evenodd" d="M10.3382 17.3241V11.9253H11.418V17.3241H10.3382Z" fill="#3C3C3C"/>
<path fill-rule="evenodd" clip-rule="evenodd" d="M8.18195 17.3241V11.9253H9.26172V17.3241H8.18195Z" fill="#3C3C3C"/>
<path fill-rule="evenodd" clip-rule="evenodd" d="M6.02264 17.3241V11.9253H7.10241V17.3241H6.02264Z" fill="#3C3C3C"/>
<path fill-rule="evenodd" clip-rule="evenodd" d="M3.86639 17.3241V11.9253H4.94616V17.3241H3.86639Z" fill="#3C3C3C"/>
<path fill-rule="evenodd" clip-rule="evenodd" d="M16.8221 17.864H2.78503V16.7842H16.8221V17.864Z" fill="#3C3C3C"/>
<path fill-rule="evenodd" clip-rule="evenodd" d="M16.8221 12.465H2.78503V11.3853H16.8221V12.465Z" fill="#3C3C3C"/>
</svg>
