<svg width="20" height="15" viewBox="0 0 20 15" fill="none" xmlns="http://www.w3.org/2000/svg">
<path d="M18.75 5.74948H17.9063L15.7359 0.866696C15.6377 0.64578 15.4775 0.458088 15.2748 0.326358C15.0721 0.194628 14.8355 0.124515 14.5938 0.124512H5.40625C5.16448 0.124515 4.92791 0.194628 4.72518 0.326358C4.52246 0.458088 4.36228 0.64578 4.26406 0.866696L2.09375 5.74948H1.25C1.08424 5.74948 0.925269 5.81533 0.808058 5.93254C0.690848 6.04975 0.625 6.20872 0.625 6.37448C0.625 6.54024 0.690848 6.69921 0.808058 6.81642C0.925269 6.93363 1.08424 6.99948 1.25 6.99948H1.875V13.2494C1.875 13.581 2.0067 13.8989 2.24112 14.1333C2.47554 14.3677 2.79348 14.4994 3.125 14.4994H5C5.33152 14.4994 5.64946 14.3677 5.88388 14.1333C6.1183 13.8989 6.25 13.581 6.25 13.2494V11.9995H13.75V13.2494C13.75 13.581 13.8817 13.8989 14.1161 14.1333C14.3505 14.3677 14.6685 14.4994 15 14.4994H16.875C17.2065 14.4994 17.5245 14.3677 17.7589 14.1333C17.9933 13.8989 18.125 13.581 18.125 13.2494V6.99948H18.75C18.9158 6.99948 19.0747 6.93363 19.1919 6.81642C19.3092 6.69921 19.375 6.54024 19.375 6.37448C19.375 6.20872 19.3092 6.04975 19.1919 5.93254C19.0747 5.81533 18.9158 5.74948 18.75 5.74948ZM5.40625 1.37451H14.5938L16.5383 5.74948H3.46172L5.40625 1.37451ZM5 13.2494H3.125V11.9995H5V13.2494ZM15 13.2494V11.9995H16.875V13.2494H15ZM16.875 10.7495H3.125V6.99948H16.875V10.7495ZM4.375 8.87447C4.375 8.70871 4.44085 8.54974 4.55806 8.43253C4.67527 8.31532 4.83424 8.24947 5 8.24947H6.25C6.41576 8.24947 6.57473 8.31532 6.69194 8.43253C6.80915 8.54974 6.875 8.70871 6.875 8.87447C6.875 9.04023 6.80915 9.1992 6.69194 9.31641C6.57473 9.43362 6.41576 9.49946 6.25 9.49946H5C4.83424 9.49946 4.67527 9.43362 4.55806 9.31641C4.44085 9.1992 4.375 9.04023 4.375 8.87447ZM13.125 8.87447C13.125 8.70871 13.1908 8.54974 13.3081 8.43253C13.4253 8.31532 13.5842 8.24947 13.75 8.24947H15C15.1658 8.24947 15.3247 8.31532 15.4419 8.43253C15.5592 8.54974 15.625 8.70871 15.625 8.87447C15.625 9.04023 15.5592 9.1992 15.4419 9.31641C15.3247 9.43362 15.1658 9.49946 15 9.49946H13.75C13.5842 9.49946 13.4253 9.43362 13.3081 9.31641C13.1908 9.1992 13.125 9.04023 13.125 8.87447Z" fill="black"/>
</svg>
