<svg width="20" height="15" viewBox="0 0 20 15" fill="none" xmlns="http://www.w3.org/2000/svg">
<path d="M18.7502 5.74875H17.9064L15.7361 0.865963C15.6379 0.645048 15.4777 0.457355 15.275 0.325626C15.0723 0.193896 14.8357 0.123782 14.5939 0.123779H5.40643C5.16467 0.123782 4.92809 0.193896 4.72536 0.325626C4.52264 0.457355 4.36246 0.645048 4.26425 0.865963L2.09393 5.74875H1.25018C1.08442 5.74875 0.925452 5.8146 0.808241 5.93181C0.691031 6.04902 0.625183 6.20799 0.625183 6.37375C0.625183 6.53951 0.691031 6.69848 0.808241 6.81569C0.925452 6.9329 1.08442 6.99874 1.25018 6.99874H1.87518V13.2487C1.87518 13.5802 2.00688 13.8982 2.2413 14.1326C2.47572 14.367 2.79366 14.4987 3.12518 14.4987H5.00018C5.3317 14.4987 5.64965 14.367 5.88407 14.1326C6.11849 13.8982 6.25018 13.5802 6.25018 13.2487V11.9987H13.7502V13.2487C13.7502 13.5802 13.8819 13.8982 14.1163 14.1326C14.3507 14.367 14.6687 14.4987 15.0002 14.4987H16.8752C17.2067 14.4987 17.5246 14.367 17.7591 14.1326C17.9935 13.8982 18.1252 13.5802 18.1252 13.2487V6.99874H18.7502C18.9159 6.99874 19.0749 6.9329 19.1921 6.81569C19.3093 6.69848 19.3752 6.53951 19.3752 6.37375C19.3752 6.20799 19.3093 6.04902 19.1921 5.93181C19.0749 5.8146 18.9159 5.74875 18.7502 5.74875ZM5.40643 1.37377H14.5939L16.5385 5.74875H3.4619L5.40643 1.37377ZM16.8752 13.2487H15.0002V11.3737C15.0002 11.208 14.9343 11.049 14.8171 10.9318C14.6999 10.8146 14.5409 10.7487 14.3752 10.7487H5.62518C5.45942 10.7487 5.30045 10.8146 5.18324 10.9318C5.06603 11.049 5.00018 11.208 5.00018 11.3737V13.2487H3.12518V6.99874H16.8752V13.2487Z" fill="black"/>
</svg>
