<svg width="16" height="16" viewBox="0 0 16 16" fill="none" xmlns="http://www.w3.org/2000/svg">
<path d="M13.7436 16H11.6923C11.3559 16 11.0769 15.721 11.0769 15.3846C11.0769 15.0482 11.3559 14.7692 11.6923 14.7692H13.7436C14.3097 14.7692 14.7692 14.3097 14.7692 13.7436V4.51282H1.23077V13.7436C1.23077 14.3097 1.69026 14.7692 2.25641 14.7692H4.30769C4.6441 14.7692 4.92308 15.0482 4.92308 15.3846C4.92308 15.721 4.6441 16 4.30769 16H2.25641C1.00923 16 0 14.9908 0 13.7436V2.25641C0 1.00923 1.00923 0 2.25641 0H13.7436C14.9908 0 16 1.00923 16 2.25641V13.7436C16 14.9908 14.9908 16 13.7436 16ZM1.23077 3.28205H14.7692V2.25641C14.7692 1.69026 14.3097 1.23077 13.7436 1.23077H2.25641C1.69026 1.23077 1.23077 1.69026 1.23077 2.25641V3.28205ZM9.64103 16H6.35897C6.02256 16 5.74359 15.721 5.74359 15.3846C5.74359 15.0482 6.02256 14.7692 6.35897 14.7692H7.38462V11.2821C7.38462 10.9456 7.66359 10.6667 8 10.6667C8.33641 10.6667 8.61539 10.9456 8.61539 11.2821V14.7692H9.64103C9.97744 14.7692 10.2564 15.0482 10.2564 15.3846C10.2564 15.721 9.97744 16 9.64103 16Z" fill="black"/>
</svg>
