<svg width="14" height="20" viewBox="0 0 14 20" fill="none" xmlns="http://www.w3.org/2000/svg">
<path d="M13.8545 9.2313C13.8308 9.13113 13.7828 9.03835 13.7146 8.96121C13.6465 8.88407 13.5603 8.82495 13.4638 8.78911L8.96306 7.10084L10.1084 1.37196C10.1343 1.23886 10.1162 1.10092 10.0569 0.978982C9.99758 0.857041 9.90019 0.757706 9.77945 0.695968C9.65871 0.63423 9.52116 0.613438 9.38756 0.63673C9.25397 0.660022 9.13157 0.726135 9.03884 0.825091L0.288844 10.2C0.217778 10.2749 0.166367 10.3662 0.139206 10.4658C0.112045 10.5654 0.109979 10.6702 0.133193 10.7708C0.156407 10.8714 0.204177 10.9647 0.272237 11.0423C0.340296 11.1199 0.426525 11.1795 0.523219 11.2157L5.02556 12.9039L3.88338 18.6266C3.85744 18.7597 3.8755 18.8976 3.93484 19.0195C3.99417 19.1415 4.09156 19.2408 4.2123 19.3026C4.33305 19.3643 4.47059 19.3851 4.60419 19.3618C4.73779 19.3385 4.86018 19.2724 4.95291 19.1734L13.7029 9.79848C13.7727 9.72358 13.823 9.63269 13.8494 9.53379C13.8759 9.4349 13.8776 9.33102 13.8545 9.2313ZM5.54041 16.718L6.35838 12.6258C6.38765 12.4807 6.36445 12.3299 6.29292 12.2002C6.22138 12.0706 6.10615 11.9706 5.96775 11.918L1.83963 10.3672L8.45056 3.28445L7.63338 7.37662C7.6041 7.52175 7.6273 7.67256 7.69884 7.80219C7.77037 7.93181 7.8856 8.03183 8.024 8.08443L12.149 9.6313L5.54041 16.718Z" fill="black"/>
</svg>
