<svg width="16" height="18" viewBox="0 0 16 18" fill="none" xmlns="http://www.w3.org/2000/svg">
<path d="M14.25 9.62349H11.75V7.1235H13C13.3315 7.1235 13.6495 6.99181 13.8839 6.75739C14.1183 6.52297 14.25 6.20503 14.25 5.87351V2.12353C14.25 1.79201 14.1183 1.47407 13.8839 1.23965C13.6495 1.00523 13.3315 0.873535 13 0.873535H3C2.66848 0.873535 2.35054 1.00523 2.11612 1.23965C1.8817 1.47407 1.75 1.79201 1.75 2.12353V5.87351C1.75 6.20503 1.8817 6.52297 2.11612 6.75739C2.35054 6.99181 2.66848 7.1235 3 7.1235H4.25V9.62349H1.75C1.41848 9.62349 1.10054 9.75519 0.866116 9.98961C0.631696 10.224 0.5 10.542 0.5 10.8735V12.1235C0.5 12.455 0.631696 12.7729 0.866116 13.0074C1.10054 13.2418 1.41848 13.3735 1.75 13.3735H2.375V16.4985C2.375 16.6642 2.44085 16.8232 2.55806 16.9404C2.67527 17.0576 2.83424 17.1235 3 17.1235C3.16576 17.1235 3.32473 17.0576 3.44194 16.9404C3.55915 16.8232 3.625 16.6642 3.625 16.4985V13.3735H12.375V16.4985C12.375 16.6642 12.4408 16.8232 12.5581 16.9404C12.6753 17.0576 12.8342 17.1235 13 17.1235C13.1658 17.1235 13.3247 17.0576 13.4419 16.9404C13.5592 16.8232 13.625 16.6642 13.625 16.4985V13.3735H14.25C14.5815 13.3735 14.8995 13.2418 15.1339 13.0074C15.3683 12.7729 15.5 12.455 15.5 12.1235V10.8735C15.5 10.542 15.3683 10.224 15.1339 9.98961C14.8995 9.75519 14.5815 9.62349 14.25 9.62349ZM3 2.12353H13V5.87351H3V2.12353ZM5.5 7.1235H10.5V9.62349H5.5V7.1235ZM14.25 12.1235H1.75V10.8735H14.25V12.1235Z" fill="black"/>
</svg>
