<svg width="20" height="15" viewBox="0 0 20 15" fill="none" xmlns="http://www.w3.org/2000/svg">
<path d="M16.2503 2.92451H2.07519V1.24951C2.07519 1.03071 1.98827 0.820866 1.83355 0.666148C1.67883 0.511431 1.46899 0.424512 1.25019 0.424512C1.03138 0.424512 0.821539 0.511431 0.666821 0.666148C0.512103 0.820866 0.425183 1.03071 0.425183 1.24951V13.7495C0.425183 13.9683 0.512103 14.1782 0.666822 14.3329C0.82154 14.4876 1.03138 14.5745 1.25019 14.5745C1.46899 14.5745 1.67883 14.4876 1.83355 14.3329C1.98827 14.1782 2.07519 13.9683 2.07519 13.7495V11.4495H17.9253V13.7495C17.9253 13.9683 18.0122 14.1782 18.1669 14.3329C18.3216 14.4876 18.5315 14.5745 18.7503 14.5745C18.9691 14.5745 19.1789 14.4876 19.3336 14.3329C19.4884 14.1782 19.5753 13.9683 19.5753 13.7495V6.24951C19.5753 5.36767 19.225 4.52194 18.6014 3.89838C17.9778 3.27482 17.1321 2.92451 16.2503 2.92451ZM2.07519 4.57451H7.30022V9.79951H2.07519V4.57451ZM8.95022 9.79951V4.57451H16.2503C16.6945 4.57451 17.1205 4.75098 17.4347 5.06511C17.7488 5.37923 17.9253 5.80527 17.9253 6.24951V9.79951H8.95022Z" fill="#3261B4" stroke="#3261B4" stroke-width="0.4"/>
</svg>
