<svg width="16" height="15" viewBox="0 0 16 15" fill="none" xmlns="http://www.w3.org/2000/svg">
<path d="M6.12524 0.474756H2.37524C2.00394 0.474756 1.64785 0.622255 1.38529 0.884804C1.12274 1.14735 0.975244 1.50345 0.975244 1.87475V5.62473C0.975244 5.99603 1.12274 6.35213 1.38529 6.61468C1.64785 6.87723 2.00394 7.02472 2.37524 7.02472H6.12524C6.49655 7.02472 6.85264 6.87723 7.11519 6.61468C7.37774 6.35213 7.52524 5.99603 7.52524 5.62473V1.87475C7.52524 1.50345 7.37774 1.14735 7.11519 0.884804C6.85264 0.622255 6.49655 0.474756 6.12524 0.474756ZM5.97524 5.47473H2.52524V2.02475H5.97524V5.47473ZM13.6252 0.474756H9.87524C9.50394 0.474756 9.14785 0.622255 8.88529 0.884804C8.62274 1.14735 8.47524 1.50345 8.47524 1.87475V5.62473C8.47524 5.99603 8.62274 6.35213 8.88529 6.61468C9.14785 6.87723 9.50394 7.02472 9.87524 7.02472H13.6252C13.9965 7.02472 14.3526 6.87723 14.6152 6.61468C14.8777 6.35213 15.0252 5.99603 15.0252 5.62473V1.87475C15.0252 1.50345 14.8777 1.14735 14.6152 0.884804C14.3526 0.622255 13.9965 0.474756 13.6252 0.474756ZM13.4752 5.47473H10.0252V2.02475H13.4752V5.47473ZM6.12524 7.97472H2.37524C2.00394 7.97472 1.64785 8.12222 1.38529 8.38477C1.12274 8.64732 0.975244 9.00341 0.975244 9.37471V13.1247C0.975244 13.496 1.12274 13.8521 1.38529 14.1146C1.64785 14.3772 2.00394 14.5247 2.37524 14.5247H6.12524C6.49655 14.5247 6.85264 14.3772 7.11519 14.1146C7.37774 13.8521 7.52524 13.496 7.52524 13.1247V9.37471C7.52524 9.00341 7.37774 8.64732 7.11519 8.38477C6.85264 8.12222 6.49655 7.97472 6.12524 7.97472ZM5.97524 12.9747H2.52524V9.52471H5.97524V12.9747ZM13.6252 7.97472H9.87524C9.50394 7.97472 9.14785 8.12222 8.88529 8.38477C8.62274 8.64732 8.47524 9.00341 8.47524 9.37471V13.1247C8.47524 13.496 8.62274 13.8521 8.88529 14.1146C9.14785 14.3772 9.50394 14.5247 9.87524 14.5247H13.6252C13.9965 14.5247 14.3526 14.3772 14.6152 14.1146C14.8777 13.8521 15.0252 13.496 15.0252 13.1247V9.37471C15.0252 9.00341 14.8777 8.64732 14.6152 8.38477C14.3526 8.12222 13.9965 7.97472 13.6252 7.97472ZM13.4752 12.9747H10.0252V9.52471H13.4752V12.9747Z" fill="#3261B4" stroke="#3261B4" stroke-width="0.3"/>
</svg>
