<svg width="20" height="18" viewBox="0 0 20 18" fill="none" xmlns="http://www.w3.org/2000/svg">
<path d="M5.93712 1.17259C6.49143 1.1699 7.02977 1.35817 7.46158 1.70576C7.89353 2.05346 8.19251 2.53934 8.30822 3.08162L8.30906 3.08555L8.30902 3.08555C8.35011 3.29902 8.30529 3.52008 8.18429 3.70068C8.0633 3.88128 7.87591 4.00683 7.66287 4.05004C7.44982 4.09324 7.22833 4.05062 7.04653 3.93142C6.8654 3.81266 6.73827 3.62746 6.69252 3.41582C6.65228 3.24668 6.55612 3.09606 6.41958 2.98837C6.28255 2.88031 6.11295 2.82187 5.93844 2.82258L5.93762 2.82258C5.74202 2.82258 5.55444 2.90028 5.41613 3.03859C5.27782 3.1769 5.20012 3.36448 5.20012 3.56008V6.79756H9.82473C9.86069 6.65366 9.93512 6.52084 10.0418 6.4142C10.1965 6.25948 10.4063 6.17256 10.6251 6.17256H15.6251C15.8439 6.17256 16.0538 6.25948 16.2085 6.4142C16.3151 6.52084 16.3896 6.65366 16.4255 6.79756H18.1251C18.5097 6.79756 18.8785 6.95033 19.1504 7.22225C19.4224 7.49418 19.5751 7.86299 19.5751 8.24755V10.7475V10.7478C19.5738 11.9607 19.0914 13.1235 18.2338 13.9812C17.4233 14.7916 16.3403 15.267 15.2001 15.3179V16.3725C15.2001 16.5913 15.1132 16.8012 14.9585 16.9559C14.8038 17.1106 14.5939 17.1975 14.3751 17.1975C14.1563 17.1975 13.9465 17.1106 13.7918 16.9559C13.637 16.8012 13.5501 16.5913 13.5501 16.3725V15.3225H6.45012V16.3725C6.45012 16.5913 6.3632 16.8012 6.20849 16.9559C6.05377 17.1106 5.84393 17.1975 5.62512 17.1975C5.40632 17.1975 5.19648 17.1106 5.04176 16.9559C4.88704 16.8012 4.80012 16.5913 4.80012 16.3725V15.3179C3.65991 15.267 2.57693 14.7916 1.76648 13.9812C0.908822 13.1235 0.42642 11.9607 0.425122 10.7478L0.425122 10.7475L0.425122 8.24755C0.425122 7.86299 0.57789 7.49418 0.849818 7.22225C1.12175 6.95033 1.49056 6.79756 1.87512 6.79756H3.55012V3.56008C3.55012 2.92687 3.80166 2.31961 4.24941 1.87187C4.69703 1.42424 5.3041 1.17272 5.93712 1.17259ZM5.93712 1.17259C5.93729 1.17259 5.93745 1.17259 5.93762 1.17259V1.37259L5.93661 1.17259C5.93678 1.17259 5.93695 1.17259 5.93712 1.17259ZM14.8001 7.82256V9.92254H11.4501V7.82256H14.8001ZM17.9251 10.7475C17.9251 11.1317 17.8495 11.512 17.7025 11.8669C17.5555 12.2218 17.34 12.5442 17.0684 12.8158C16.7968 13.0874 16.4744 13.3029 16.1195 13.4499C15.7646 13.5969 15.3842 13.6725 15.0001 13.6725H5.00012C4.22436 13.6725 3.48038 13.3644 2.93183 12.8158C2.38329 12.2673 2.07512 11.5233 2.07512 10.7475V8.44755H9.80012V10.7475C9.80012 10.9663 9.88704 11.1762 10.0418 11.3309C10.1965 11.4856 10.4063 11.5725 10.6251 11.5725H15.6251C15.8439 11.5725 16.0538 11.4856 16.2085 11.3309C16.3632 11.1762 16.4501 10.9663 16.4501 10.7475V8.44755H17.9251V10.7475Z" fill="#3261B4" stroke="#3261B4" stroke-width="0.4"/>
</svg>
