<svg width="128" height="40" viewBox="0 0 128 40" fill="none" xmlns="http://www.w3.org/2000/svg">
<path d="M45.5438 18.6581V29.8864C45.5438 30.0369 45.4633 30.1757 45.3331 30.2517L29.6341 39.3059C29.5259 39.3687 29.3957 39.379 29.2787 39.3366L25.3006 37.8887L12.085 33.0861C11.9183 33.0262 11.8071 32.867 11.8071 32.6902V18.0181C11.8071 17.8677 11.8876 17.7289 12.0177 17.6529L18.8873 13.6905C19.0277 13.6101 19.2018 13.6159 19.3363 13.708L25.1163 17.65C25.2319 17.7289 25.3006 17.8589 25.3006 17.9977V24.1196C25.3006 24.3519 25.4893 24.5404 25.7218 24.5404H33.3125C33.545 24.5404 33.7337 24.3519 33.7337 24.1196V18.2358H45.1196C45.3522 18.2358 45.5408 18.4243 45.5408 18.6566L45.5438 18.6581Z" fill="#F6C542"/>
<path d="M33.7366 11.2564V24.1196C33.7366 24.3519 33.548 24.5404 33.3154 24.5404H25.7248C25.4922 24.5404 25.3036 24.3519 25.3036 24.1196V17.9977C25.3036 17.8589 25.2348 17.7289 25.1193 17.65L19.3393 13.7081C19.2047 13.616 19.0307 13.6102 18.8903 13.6905L12.0207 17.6529C11.8905 17.7274 11.8101 17.8677 11.8101 18.0182V24.6149L0.421214 24.5886C0.188669 24.5886 0 24.4001 0 24.1678V13.014C0 12.8636 0.0804402 12.7248 0.210607 12.6488L11.8086 5.96001L20.9379 0.69432C21.0914 0.605195 21.2845 0.622728 21.4205 0.736691L25.3021 3.99049L29.545 7.54673L33.586 10.9335C33.681 11.0138 33.7366 11.1322 33.7366 11.2564Z" fill="#1B3562"/>
<path d="M65.9381 26.409V28.8913H53.9701V10.7361H56.629V26.409H65.9381Z" fill="#1B3562"/>
<path d="M79.12 22.7518C79.12 18.1684 76.7756 15.3223 72.9993 15.3223C69.223 15.3223 66.7059 18.2488 66.7059 22.2799C66.7059 26.311 69.3444 29.2375 73.1236 29.2375C76.1394 29.2375 78.2235 27.604 78.8422 24.7564L78.8977 24.5007H76.5079L76.467 24.6599C76.0516 26.2744 74.8947 27.1292 73.1221 27.1292C70.9122 27.1292 69.4263 25.5395 69.204 22.9651H79.1186V22.7533L79.12 22.7518ZM69.2712 21.0277C69.6457 18.6769 70.9956 17.3327 72.9993 17.3327C75.003 17.3327 76.3368 18.6769 76.524 21.0277H69.2712Z" fill="#1B3562"/>
<path d="M84.3838 17.7054V25.826C84.3838 26.5303 84.685 26.8064 85.4617 26.8064C85.8361 26.8064 86.2661 26.7085 86.462 26.6428L86.4957 26.6325H86.816V28.7511L86.6493 28.7876C86.0862 28.906 85.5289 28.9659 84.9907 28.9659C83.0294 28.9659 81.9486 28.0089 81.9486 26.2746V17.7069H80.0868V15.6482H81.9486V11.604H84.3838V15.6482H86.8657V17.7069H84.3838V17.7054Z" fill="#1B3562"/>
<path d="M95.4173 15.3487C93.8056 15.3487 92.5054 15.9389 91.4582 17.1487V10.7361H89.0245V28.8913H91.4582V27.5427C92.4688 28.7277 93.6871 29.2624 95.3428 29.2624C98.888 29.2624 101.089 26.596 101.089 22.3048C101.089 18.0137 98.9158 15.3472 95.4173 15.3472V15.3487ZM95.1921 27.1541C92.776 27.1541 91.3324 25.3511 91.3324 22.3326C91.3324 19.9876 92.3533 17.4848 95.217 17.4848C97.3391 17.4848 98.6057 19.2965 98.6057 22.3326C98.6057 25.3687 97.3289 27.1541 95.1906 27.1541H95.1921Z" fill="#1B3562"/>
<path d="M113.775 15.6467V28.8898H111.342V27.4638C110.319 28.6663 109.183 29.1879 107.631 29.1879C104.838 29.1879 103.1 27.4799 103.1 24.736V15.6453H105.534V24.6849C105.534 26.2205 106.506 27.1015 108.203 27.1015C110.052 27.1015 111.342 25.7222 111.342 23.744V15.6467H113.775Z" fill="#1B3562"/>
<path d="M125.566 10.7361V17.1034C124.617 15.9813 123.238 15.3487 121.707 15.3487C118.21 15.3487 115.859 18.1437 115.859 22.3063C115.859 26.4689 118.175 29.2639 121.756 29.2639C123.355 29.2639 124.55 28.7584 125.566 27.6392V28.8913H128V10.7361H125.566ZM121.83 27.1541C119.647 27.1541 118.343 25.3511 118.343 22.3326C118.343 19.9876 119.254 17.4848 121.806 17.4848C124.202 17.4848 125.691 19.3432 125.691 22.3326C125.691 24.1326 125.189 27.1541 121.83 27.1541Z" fill="#1B3562"/>
</svg>
