<svg width="18" height="14" viewBox="0 0 18 14" fill="none" xmlns="http://www.w3.org/2000/svg">
<path d="M18 6.99801C18 7.19693 17.921 7.38769 17.7803 7.52834C17.6397 7.66899 17.4489 7.74801 17.25 7.74801H0.75C0.551088 7.74801 0.360322 7.66899 0.21967 7.52834C0.0790178 7.38769 0 7.19693 0 6.99801C0 6.7991 0.0790178 6.60834 0.21967 6.46769C0.360322 6.32703 0.551088 6.24802 0.75 6.24802H17.25C17.4489 6.24802 17.6397 6.32703 17.7803 6.46769C17.921 6.60834 18 6.7991 18 6.99801ZM0.75 1.74804H17.25C17.4489 1.74804 17.6397 1.66902 17.7803 1.52837C17.921 1.38772 18 1.19695 18 0.998043C18 0.799132 17.921 0.608367 17.7803 0.467716C17.6397 0.327064 17.4489 0.248047 17.25 0.248047H0.75C0.551088 0.248047 0.360322 0.327064 0.21967 0.467716C0.0790178 0.608367 0 0.799132 0 0.998043C0 1.19695 0.0790178 1.38772 0.21967 1.52837C0.360322 1.66902 0.551088 1.74804 0.75 1.74804ZM17.25 12.248H0.75C0.551088 12.248 0.360322 12.327 0.21967 12.4677C0.0790178 12.6083 0 12.7991 0 12.998C0 13.1969 0.0790178 13.3877 0.21967 13.5283C0.360322 13.669 0.551088 13.748 0.75 13.748H17.25C17.4489 13.748 17.6397 13.669 17.7803 13.5283C17.921 13.3877 18 13.1969 18 12.998C18 12.7991 17.921 12.6083 17.7803 12.4677C17.6397 12.327 17.4489 12.248 17.25 12.248Z" fill="#1E1E2D"/>
</svg>
