<svg width="22" height="20" viewBox="0 0 22 20" fill="none" xmlns="http://www.w3.org/2000/svg">
<path d="M20.625 10.875H18.875V9.12501H20.625C20.8571 9.12501 21.0796 9.03282 21.2437 8.86872C21.4078 8.70463 21.5 8.48207 21.5 8.25001C21.5 8.01794 21.4078 7.79538 21.2437 7.63129C21.0796 7.46719 20.8571 7.37501 20.625 7.37501H18.875V1.03126C18.875 0.799191 18.7828 0.576632 18.6187 0.412538C18.4546 0.248443 18.2321 0.156256 18 0.156256C17.7679 0.156256 17.5454 0.248443 17.3813 0.412538C17.2172 0.576632 17.125 0.799191 17.125 1.03126V7.37501H10.0616L4.69016 0.493131C4.5781 0.349354 4.42394 0.244162 4.24921 0.192245C4.07447 0.140328 3.88789 0.14428 3.71551 0.203547C3.54313 0.262814 3.39356 0.374438 3.28769 0.522829C3.18183 0.671221 3.12495 0.848971 3.125 1.03126V7.37501H1.375C1.14294 7.37501 0.920376 7.46719 0.756282 7.63129C0.592187 7.79538 0.5 8.01794 0.5 8.25001C0.5 8.48207 0.592187 8.70463 0.756282 8.86872C0.920376 9.03282 1.14294 9.12501 1.375 9.12501H3.125V10.875H1.375C1.14294 10.875 0.920376 10.9672 0.756282 11.1313C0.592187 11.2954 0.5 11.5179 0.5 11.75C0.5 11.9821 0.592187 12.2046 0.756282 12.3687C0.920376 12.5328 1.14294 12.625 1.375 12.625H3.125V18.9688C3.125 19.2008 3.21719 19.4234 3.38128 19.5875C3.54538 19.7516 3.76794 19.8438 4 19.8438C4.23206 19.8438 4.45462 19.7516 4.61872 19.5875C4.78281 19.4234 4.875 19.2008 4.875 18.9688V12.625H11.9384L17.3098 19.5069C17.3917 19.6118 17.4964 19.6967 17.616 19.7551C17.7356 19.8135 17.8669 19.8438 18 19.8438C18.0968 19.844 18.193 19.8277 18.2844 19.7956C18.4566 19.7364 18.6061 19.6249 18.712 19.4767C18.8179 19.3285 18.8749 19.1509 18.875 18.9688V12.625H20.625C20.8571 12.625 21.0796 12.5328 21.2437 12.3687C21.4078 12.2046 21.5 11.9821 21.5 11.75C21.5 11.5179 21.4078 11.2954 21.2437 11.1313C21.0796 10.9672 20.8571 10.875 20.625 10.875ZM17.125 9.12501V10.875H12.7927L11.4266 9.12501H17.125ZM4.875 3.57422L7.84125 7.37501H4.875V3.57422ZM4.875 10.875V9.12501H9.20734L10.5734 10.875H4.875ZM17.125 16.4258L14.1588 12.625H17.125V16.4258Z" fill="#1E1E2D"/>
</svg>
