<svg width="20" height="20" viewBox="0 0 20 20" fill="none" xmlns="http://www.w3.org/2000/svg">
<path fill-rule="evenodd" clip-rule="evenodd" d="M13.6103 8.99012H10.782V8.04736H13.6103V8.99012Z" fill="black"/>
<path fill-rule="evenodd" clip-rule="evenodd" d="M15.9727 7.10462H4.65955V6.16187H15.9727V7.10462Z" fill="black"/>
<path fill-rule="evenodd" clip-rule="evenodd" d="M7.49066 5.21877C7.49066 4.17736 8.33477 3.33325 9.37618 3.33325C9.93936 3.33325 10.4448 3.58011 10.7903 3.97153C11.1358 3.58011 11.6413 3.33325 12.2045 3.33325C13.2459 3.33325 14.09 4.17736 14.09 5.21877V9.93256H13.1472V5.21877C13.1472 4.69803 12.7252 4.27601 12.2045 4.27601C11.6837 4.27601 11.2617 4.69803 11.2617 5.21877V9.93256H10.3189V5.21877C10.3189 4.69803 9.89692 4.27601 9.37618 4.27601C8.85544 4.27601 8.43342 4.69803 8.43342 5.21877H7.49066Z" fill="black"/>
<mask id="mask0_17_771" style="mask-type:alpha" maskUnits="userSpaceOnUse" x="0" y="7" width="20" height="11">
<path d="M19.697 7.51733V17.0142H0.833313V7.51733H19.697Z" fill="black"/>
</mask>
<g mask="url(#mask0_17_771)">
<path fill-rule="evenodd" clip-rule="evenodd" d="M-6.03446 14.6391C-5.67966 14.3177 -5.22238 14.1636 -4.77525 14.1636C-4.32812 14.1636 -3.87084 14.3177 -3.51604 14.6391C-3.35043 14.7891 -3.12516 14.8706 -2.88973 14.8706C-2.6543 14.8706 -2.42903 14.7891 -2.26343 14.6391C-1.90863 14.3177 -1.45134 14.1636 -1.00422 14.1636C-0.557087 14.1636 -0.0998006 14.3177 0.254997 14.6391C0.420602 14.7891 0.645873 14.8706 0.881302 14.8706C1.11673 14.8706 1.342 14.7891 1.50761 14.6391C1.86241 14.3177 2.31969 14.1636 2.76682 14.1636C3.21395 14.1636 3.67123 14.3177 4.02603 14.6391C4.19164 14.7891 4.41691 14.8706 4.65234 14.8706V14.8815C4.88589 14.8803 5.10907 14.7989 5.27346 14.65C5.62825 14.3286 6.08554 14.1744 6.53267 14.1744C6.9798 14.1744 7.43708 14.3286 7.79188 14.65C7.95749 14.8 8.18276 14.8815 8.41819 14.8815C8.65362 14.8815 8.87889 14.8 9.04449 14.65C9.39929 14.3286 9.85658 14.1744 10.3037 14.1744C10.7508 14.1744 11.2081 14.3286 11.5629 14.65C11.7285 14.8 11.9538 14.8815 12.1892 14.8815C12.4247 14.8815 12.6499 14.8 12.8155 14.65C13.1703 14.3286 13.6276 14.1744 14.0747 14.1744C14.5219 14.1744 14.9792 14.3286 15.334 14.65C15.4994 14.7999 15.7245 14.8814 15.9598 14.8815V14.8772C16.1952 14.8772 16.4205 14.7957 16.5861 14.6457C16.9409 14.3243 17.3982 14.1702 17.8453 14.1702C18.2924 14.1702 18.7497 14.3243 19.1045 14.6457C19.2701 14.7957 19.4954 14.8772 19.7308 14.8772C19.9662 14.8772 20.1915 14.7957 20.3571 14.6457C20.7119 14.3243 21.1692 14.1702 21.6163 14.1702C22.0635 14.1702 22.5208 14.3243 22.8755 14.6457C23.0412 14.7957 23.2664 14.8772 23.5019 14.8772C23.7373 14.8772 23.9626 14.7957 24.1282 14.6457C24.483 14.3243 24.9402 14.1702 25.3874 14.1702C25.8345 14.1702 26.2918 14.3243 26.6466 14.6457C26.8122 14.7957 27.0375 14.8772 27.2729 14.8772V15.82C26.8258 15.82 26.3685 15.6658 26.0137 15.3445C25.8481 15.1944 25.6228 15.1129 25.3874 15.1129C25.1519 15.1129 24.9267 15.1944 24.7611 15.3445C24.4063 15.6658 23.949 15.82 23.5019 15.82C23.0547 15.82 22.5974 15.6658 22.2426 15.3445C22.077 15.1944 21.8518 15.1129 21.6163 15.1129C21.3809 15.1129 21.1556 15.1944 20.99 15.3445C20.6352 15.6658 20.1779 15.82 19.7308 15.82C19.2837 15.82 18.8264 15.6658 18.4716 15.3445C18.306 15.1944 18.0807 15.1129 17.8453 15.1129C17.6099 15.1129 17.3846 15.1944 17.219 15.3445C16.8643 15.6657 16.4072 15.8199 15.9603 15.82V15.8242C15.5131 15.8242 15.0558 15.6701 14.701 15.3487C14.5354 15.1987 14.3102 15.1172 14.0747 15.1172C13.8393 15.1172 13.614 15.1987 13.4484 15.3487C13.0936 15.6701 12.6364 15.8242 12.1892 15.8242C11.7421 15.8242 11.2848 15.6701 10.93 15.3487C10.7644 15.1987 10.5391 15.1172 10.3037 15.1172C10.0683 15.1172 9.843 15.1987 9.6774 15.3487C9.3226 15.6701 8.86531 15.8242 8.41819 15.8242C7.97106 15.8242 7.51377 15.6701 7.15897 15.3487C6.99337 15.1987 6.7681 15.1172 6.53267 15.1172C6.29724 15.1172 6.07197 15.1987 5.90636 15.3487C5.55157 15.6701 5.09428 15.8242 4.64715 15.8242V15.8134C4.20168 15.8122 3.74655 15.658 3.39312 15.3379C3.22752 15.1878 3.00225 15.1063 2.76682 15.1063C2.53139 15.1063 2.30612 15.1878 2.14051 15.3379C1.78572 15.6592 1.32843 15.8134 0.881302 15.8134C0.434176 15.8134 -0.0231123 15.6592 -0.37791 15.3379C-0.543515 15.1878 -0.768785 15.1063 -1.00422 15.1063C-1.23965 15.1063 -1.46492 15.1878 -1.63052 15.3379C-1.98532 15.6592 -2.44261 15.8134 -2.88973 15.8134C-3.33686 15.8134 -3.79415 15.6592 -4.14894 15.3379C-4.31455 15.1878 -4.53982 15.1063 -4.77525 15.1063C-5.01068 15.1063 -5.23595 15.1878 -5.40155 15.3379L-5.40155 15.3379C-5.75635 15.6592 -6.21364 15.8134 -6.66077 15.8134V14.8706C-6.42534 14.8706 -6.20007 14.7891 -6.03446 14.6391Z" fill="black"/>
<path fill-rule="evenodd" clip-rule="evenodd" d="M-6.03446 12.2822C-5.67966 11.9608 -5.22238 11.8066 -4.77525 11.8066C-4.32812 11.8066 -3.87084 11.9608 -3.51604 12.2822C-3.35043 12.4322 -3.12516 12.5137 -2.88973 12.5137C-2.6543 12.5137 -2.42903 12.4322 -2.26343 12.2822C-1.90863 11.9608 -1.45134 11.8066 -1.00422 11.8066C-0.557087 11.8066 -0.0998006 11.9608 0.254997 12.2822C0.420602 12.4322 0.645873 12.5137 0.881302 12.5137C1.11673 12.5137 1.342 12.4322 1.50761 12.2822C1.86241 11.9608 2.31969 11.8066 2.76682 11.8066C3.21395 11.8066 3.67123 11.9608 4.02603 12.2822C4.19164 12.4322 4.41691 12.5137 4.65234 12.5137V12.5245C4.88589 12.5234 5.10907 12.4419 5.27346 12.293C5.62825 11.9717 6.08554 11.8175 6.53267 11.8175C6.9798 11.8175 7.43708 11.9717 7.79188 12.293C7.95749 12.443 8.18276 12.5246 8.41819 12.5246C8.65362 12.5246 8.87889 12.443 9.04449 12.293C9.39929 11.9717 9.85658 11.8175 10.3037 11.8175C10.7508 11.8175 11.2081 11.9717 11.5629 12.293C11.7285 12.443 11.9538 12.5246 12.1892 12.5246C12.4247 12.5246 12.6499 12.443 12.8155 12.293C13.1703 11.9717 13.6276 11.8175 14.0747 11.8175C14.5219 11.8175 14.9792 11.9717 15.334 12.293C15.4994 12.4429 15.7245 12.5244 15.9598 12.5246V12.5203C16.1952 12.5203 16.4205 12.4388 16.5861 12.2888C16.9409 11.9674 17.3982 11.8132 17.8453 11.8132C18.2924 11.8132 18.7497 11.9674 19.1045 12.2888C19.2701 12.4388 19.4954 12.5203 19.7308 12.5203C19.9662 12.5203 20.1915 12.4388 20.3571 12.2888C20.7119 11.9674 21.1692 11.8132 21.6163 11.8132C22.0635 11.8132 22.5208 11.9674 22.8755 12.2888C23.0412 12.4388 23.2664 12.5203 23.5019 12.5203C23.7373 12.5203 23.9626 12.4388 24.1282 12.2888C24.483 11.9674 24.9402 11.8132 25.3874 11.8132C25.8345 11.8132 26.2918 11.9674 26.6466 12.2888C26.8122 12.4388 27.0375 12.5203 27.2729 12.5203V13.4631C26.8258 13.4631 26.3685 13.3089 26.0137 12.9875C25.8481 12.8375 25.6228 12.756 25.3874 12.756C25.1519 12.756 24.9267 12.8375 24.7611 12.9875C24.4063 13.3089 23.949 13.4631 23.5019 13.4631C23.0547 13.4631 22.5974 13.3089 22.2426 12.9875C22.077 12.8375 21.8518 12.756 21.6163 12.756C21.3809 12.756 21.1556 12.8375 20.99 12.9875C20.6352 13.3089 20.1779 13.4631 19.7308 13.4631C19.2837 13.4631 18.8264 13.3089 18.4716 12.9875C18.306 12.8375 18.0807 12.756 17.8453 12.756C17.6099 12.756 17.3846 12.8375 17.219 12.9875C16.8643 13.3088 16.4072 13.463 15.9603 13.4631V13.4673C15.5131 13.4673 15.0558 13.3131 14.701 12.9918C14.5354 12.8418 14.3102 12.7602 14.0747 12.7602C13.8393 12.7602 13.614 12.8418 13.4484 12.9918C13.0936 13.3131 12.6364 13.4673 12.1892 13.4673C11.7421 13.4673 11.2848 13.3131 10.93 12.9918C10.7644 12.8418 10.5391 12.7602 10.3037 12.7602C10.0683 12.7602 9.843 12.8418 9.6774 12.9918C9.3226 13.3131 8.86531 13.4673 8.41819 13.4673C7.97106 13.4673 7.51377 13.3131 7.15897 12.9918C6.99337 12.8418 6.7681 12.7602 6.53267 12.7602C6.29724 12.7602 6.07197 12.8418 5.90636 12.9918C5.55157 13.3131 5.09428 13.4673 4.64715 13.4673V13.4565C4.20168 13.4553 3.74655 13.3011 3.39312 12.9809C3.22752 12.8309 3.00225 12.7494 2.76682 12.7494C2.53139 12.7494 2.30612 12.8309 2.14051 12.9809C1.78572 13.3023 1.32843 13.4565 0.881302 13.4565C0.434176 13.4565 -0.0231123 13.3023 -0.37791 12.9809C-0.543515 12.8309 -0.768785 12.7494 -1.00422 12.7494C-1.23965 12.7494 -1.46492 12.8309 -1.63052 12.9809C-1.98532 13.3023 -2.44261 13.4565 -2.88973 13.4565C-3.33686 13.4565 -3.79415 13.3023 -4.14894 12.9809C-4.31455 12.8309 -4.53982 12.7494 -4.77525 12.7494C-5.01068 12.7494 -5.23595 12.8309 -5.40155 12.9809L-5.40155 12.9809C-5.75635 13.3023 -6.21364 13.4565 -6.66077 13.4565V12.5137C-6.42534 12.5137 -6.20007 12.4322 -6.03446 12.2822Z" fill="black"/>
<path fill-rule="evenodd" clip-rule="evenodd" d="M-6.03446 9.92501C-5.67966 9.60364 -5.22238 9.44946 -4.77525 9.44946C-4.32812 9.44946 -3.87084 9.60364 -3.51604 9.92501C-3.35043 10.075 -3.12516 10.1565 -2.88973 10.1565C-2.6543 10.1565 -2.42903 10.075 -2.26343 9.92501C-1.90863 9.60364 -1.45134 9.44946 -1.00422 9.44946C-0.557087 9.44946 -0.0998006 9.60364 0.254997 9.92501C0.420602 10.075 0.645873 10.1565 0.881302 10.1565C1.11673 10.1565 1.342 10.075 1.50761 9.92501C1.86241 9.60364 2.31969 9.44946 2.76682 9.44946C3.21395 9.44946 3.67123 9.60364 4.02603 9.92501C4.19164 10.075 4.41691 10.1565 4.65234 10.1565V10.1674C4.88589 10.1662 5.10907 10.0848 5.27346 9.93585C5.62825 9.61448 6.08554 9.4603 6.53267 9.4603C6.9798 9.4603 7.43708 9.61448 7.79188 9.93585C7.95749 10.0859 8.18276 10.1674 8.41819 10.1674C8.65362 10.1674 8.87889 10.0859 9.04449 9.93585C9.39929 9.61448 9.85658 9.4603 10.3037 9.4603C10.7508 9.4603 11.2081 9.61448 11.5629 9.93585C11.7285 10.0859 11.9538 10.1674 12.1892 10.1674C12.4247 10.1674 12.6499 10.0859 12.8155 9.93585C13.1703 9.61448 13.6276 9.4603 14.0747 9.4603C14.5219 9.4603 14.9792 9.61448 15.334 9.93585C15.4994 10.0858 15.7245 10.1673 15.9598 10.1674V10.1631C16.1952 10.1631 16.4205 10.0816 16.5861 9.93161C16.9409 9.61024 17.3982 9.45606 17.8453 9.45606C18.2924 9.45606 18.7497 9.61024 19.1045 9.93161C19.2701 10.0816 19.4954 10.1631 19.7308 10.1631C19.9662 10.1631 20.1915 10.0816 20.3571 9.93161C20.7119 9.61024 21.1692 9.45606 21.6163 9.45606C22.0635 9.45606 22.5208 9.61024 22.8755 9.93161C23.0412 10.0816 23.2664 10.1631 23.5019 10.1631C23.7373 10.1631 23.9626 10.0816 24.1282 9.93161C24.483 9.61024 24.9402 9.45606 25.3874 9.45606C25.8345 9.45606 26.2918 9.61024 26.6466 9.93161C26.8122 10.0816 27.0375 10.1631 27.2729 10.1631V11.1059C26.8258 11.1059 26.3685 10.9517 26.0137 10.6303C25.8481 10.4803 25.6228 10.3988 25.3874 10.3988C25.1519 10.3988 24.9267 10.4803 24.7611 10.6303C24.4063 10.9517 23.949 11.1059 23.5019 11.1059C23.0547 11.1059 22.5974 10.9517 22.2426 10.6303C22.077 10.4803 21.8518 10.3988 21.6163 10.3988C21.3809 10.3988 21.1556 10.4803 20.99 10.6303C20.6352 10.9517 20.1779 11.1059 19.7308 11.1059C19.2837 11.1059 18.8264 10.9517 18.4716 10.6303C18.306 10.4803 18.0807 10.3988 17.8453 10.3988C17.6099 10.3988 17.3846 10.4803 17.219 10.6303C16.8643 10.9516 16.4072 11.1058 15.9603 11.1059V11.1101C15.5131 11.1101 15.0558 10.956 14.701 10.6346C14.5354 10.4846 14.3102 10.4031 14.0747 10.4031C13.8393 10.4031 13.614 10.4846 13.4484 10.6346C13.0936 10.956 12.6364 11.1101 12.1892 11.1101C11.7421 11.1101 11.2848 10.956 10.93 10.6346C10.7644 10.4846 10.5391 10.4031 10.3037 10.4031C10.0683 10.4031 9.843 10.4846 9.6774 10.6346C9.3226 10.956 8.86531 11.1101 8.41819 11.1101C7.97106 11.1101 7.51377 10.956 7.15897 10.6346C6.99337 10.4846 6.7681 10.4031 6.53267 10.4031C6.29724 10.4031 6.07197 10.4846 5.90636 10.6346C5.55157 10.956 5.09428 11.1101 4.64715 11.1101V11.0993C4.20168 11.0981 3.74655 10.9439 3.39312 10.6237C3.22752 10.4737 3.00225 10.3922 2.76682 10.3922C2.53139 10.3922 2.30612 10.4737 2.14051 10.6237C1.78572 10.9451 1.32843 11.0993 0.881302 11.0993C0.434176 11.0993 -0.0231123 10.9451 -0.37791 10.6237C-0.543515 10.4737 -0.768785 10.3922 -1.00422 10.3922C-1.23965 10.3922 -1.46492 10.4737 -1.63052 10.6237C-1.98532 10.9451 -2.44261 11.0993 -2.88973 11.0993C-3.33686 11.0993 -3.79415 10.9451 -4.14894 10.6237C-4.31455 10.4737 -4.53982 10.3922 -4.77525 10.3922C-5.01068 10.3922 -5.23595 10.4737 -5.40155 10.6237L-5.40155 10.6237C-5.75635 10.9451 -6.21364 11.0993 -6.66077 11.0993V10.1565C-6.42534 10.1565 -6.20007 10.075 -6.03446 9.92501Z" fill="black"/>
</g>
</svg>
