<svg width="22" height="19" viewBox="0 0 22 19" fill="none" xmlns="http://www.w3.org/2000/svg">
<path d="M21.201 15.6334L13.0026 1.39568C12.7977 1.04686 12.5052 0.757639 12.1541 0.556679C11.803 0.355719 11.4055 0.25 11.001 0.25C10.5965 0.25 10.199 0.355719 9.84787 0.556679C9.49679 0.757639 9.20431 1.04686 8.99944 1.39568L0.801006 15.6334C0.603883 15.9708 0.5 16.3545 0.5 16.7453C0.5 17.136 0.603883 17.5198 0.801006 17.8572C1.00325 18.2081 1.29523 18.4989 1.64697 18.6997C1.99871 18.9005 2.39755 19.0042 2.80257 19H19.1994C19.6041 19.0038 20.0026 18.9001 20.354 18.6992C20.7054 18.4984 20.997 18.2078 21.1991 17.8572C21.3965 17.5199 21.5007 17.1363 21.5011 16.7455C21.5014 16.3548 21.3978 15.971 21.201 15.6334ZM19.9007 17.1062C19.8292 17.2281 19.7266 17.3289 19.6034 17.3981C19.4802 17.4672 19.3407 17.5024 19.1994 17.5H2.80257C2.66127 17.5024 2.52185 17.4672 2.39863 17.3981C2.2754 17.3289 2.17279 17.2281 2.10132 17.1062C2.03658 16.9966 2.00243 16.8717 2.00243 16.7444C2.00243 16.6171 2.03658 16.4921 2.10132 16.3825L10.2998 2.14474C10.3727 2.0234 10.4757 1.923 10.599 1.85329C10.7222 1.78359 10.8613 1.74695 11.0029 1.74695C11.1444 1.74695 11.2836 1.78359 11.4068 1.85329C11.53 1.923 11.6331 2.0234 11.706 2.14474L19.9044 16.3825C19.9686 16.4924 20.0021 16.6176 20.0015 16.7449C20.0008 16.8722 19.966 16.997 19.9007 17.1062ZM10.251 11.5V7.75002C10.251 7.55111 10.33 7.36035 10.4707 7.2197C10.6113 7.07905 10.8021 7.00003 11.001 7.00003C11.1999 7.00003 11.3907 7.07905 11.5313 7.2197C11.672 7.36035 11.751 7.55111 11.751 7.75002V11.5C11.751 11.6989 11.672 11.8897 11.5313 12.0303C11.3907 12.171 11.1999 12.25 11.001 12.25C10.8021 12.25 10.6113 12.171 10.4707 12.0303C10.33 11.8897 10.251 11.6989 10.251 11.5ZM12.126 14.875C12.126 15.0975 12.06 15.315 11.9364 15.5C11.8128 15.685 11.6371 15.8292 11.4315 15.9143C11.226 15.9995 10.9998 16.0218 10.7815 15.9784C10.5633 15.935 10.3628 15.8278 10.2055 15.6705C10.0482 15.5131 9.94103 15.3127 9.89762 15.0945C9.85421 14.8762 9.87649 14.65 9.96164 14.4445C10.0468 14.2389 10.191 14.0632 10.376 13.9396C10.561 13.816 10.7785 13.75 11.001 13.75C11.2994 13.75 11.5855 13.8685 11.7965 14.0795C12.0075 14.2905 12.126 14.5766 12.126 14.875Z" fill="#1B3562"/>
</svg>
