<svg width="24" height="24" viewBox="0 0 24 24" fill="none" xmlns="http://www.w3.org/2000/svg">
<path d="M20.9027 5.344C19.8838 4.32762 18.5038 3.75606 17.0646 3.7543C15.6254 3.75255 14.2441 4.32074 13.2227 5.33463L11.9965 6.47369L10.7693 5.33088C9.7481 4.31258 8.36423 3.74164 6.92211 3.74366C5.47998 3.74568 4.09773 4.3205 3.07942 5.34166C2.06111 6.36282 1.49017 7.74668 1.49219 9.18879C1.49421 10.6309 2.06904 12.0132 3.0902 13.0315L11.4668 21.5308C11.5366 21.6017 11.6197 21.6579 11.7115 21.6963C11.8032 21.7348 11.9017 21.7545 12.0011 21.7545C12.1006 21.7545 12.1991 21.7348 12.2908 21.6963C12.3825 21.6579 12.4657 21.6017 12.5355 21.5308L20.9027 13.0315C21.9217 12.0118 22.4942 10.6293 22.4942 9.18773C22.4942 7.74619 21.9217 6.36363 20.9027 5.344ZM19.8386 11.9777L11.9965 19.9314L4.14958 11.9702C3.41111 11.2318 2.99625 10.2302 2.99625 9.18586C2.99625 8.14152 3.41111 7.13996 4.14958 6.4015C4.88804 5.66304 5.88961 5.24818 6.93395 5.24818C7.9783 5.24818 8.97986 5.66304 9.71833 6.4015L9.73708 6.42025L11.4855 8.0468C11.6243 8.17596 11.8069 8.24776 11.9965 8.24776C12.186 8.24776 12.3686 8.17596 12.5074 8.0468L14.2558 6.42025L14.2746 6.4015C15.0135 5.66354 16.0154 5.24935 17.0597 5.25005C18.1041 5.25076 19.1054 5.66629 19.8433 6.40525C20.5813 7.1442 20.9955 8.14605 20.9948 9.19039C20.9941 10.2347 20.5785 11.236 19.8396 11.974L19.8386 11.9777Z" fill="#1B3562"/>
</svg>
