<svg width="19" height="22" viewBox="0 0 19 22" fill="none" xmlns="http://www.w3.org/2000/svg">
<path d="M14.4953 13.9995C13.995 13.9994 13.4998 14.0996 13.0389 14.2943C12.578 14.489 12.1609 14.7742 11.8122 15.1329L7.49034 12.3552C7.83031 11.4834 7.83031 10.5157 7.49034 9.64391L11.8122 6.86612C12.4614 7.5311 13.3344 7.93135 14.2619 7.98926C15.1894 8.04717 16.1054 7.75863 16.8322 7.17956C17.5591 6.6005 18.045 5.77217 18.1959 4.85518C18.3467 3.93818 18.1516 2.99785 17.6485 2.21649C17.1455 1.43512 16.3701 0.868402 15.4729 0.626193C14.5757 0.383983 13.6206 0.483544 12.7926 0.905572C11.9646 1.3276 11.3229 2.04203 10.9917 2.91034C10.6606 3.77866 10.6637 4.739 11.0003 5.60518L6.67847 8.38298C6.15803 7.84868 5.49008 7.48172 4.76 7.329C4.02993 7.17628 3.27089 7.24475 2.57993 7.52564C1.88897 7.80654 1.29746 8.28711 0.881041 8.90592C0.464616 9.52473 0.242188 10.2537 0.242188 10.9995C0.242187 11.7454 0.464616 12.4743 0.881041 13.0931C1.29746 13.712 1.88897 14.1925 2.57993 14.4734C3.27089 14.7543 4.02993 14.8228 4.76 14.6701C5.49008 14.5173 6.15803 14.1504 6.67847 13.6161L11.0003 16.3939C10.7108 17.1406 10.668 17.9604 10.8781 18.7333C11.0882 19.5061 11.5402 20.1914 12.168 20.6888C12.7958 21.1861 13.5663 21.4695 14.3667 21.4972C15.1671 21.525 15.9554 21.2958 16.6161 20.8431C17.2769 20.3905 17.7753 19.7382 18.0385 18.9817C18.3017 18.2253 18.3158 17.4045 18.0787 16.6395C17.8416 15.8745 17.3658 15.2055 16.721 14.7304C16.0762 14.2553 15.2963 13.9992 14.4953 13.9995ZM14.4953 1.99958C14.9404 1.99958 15.3754 2.13154 15.7454 2.37877C16.1154 2.626 16.4038 2.9774 16.5741 3.38853C16.7444 3.79966 16.7889 4.25206 16.7021 4.68852C16.6153 5.12497 16.401 5.52588 16.0863 5.84055C15.7717 6.15522 15.3708 6.36951 14.9343 6.45632C14.4978 6.54314 14.0454 6.49858 13.6343 6.32829C13.2232 6.15799 12.8718 5.8696 12.6245 5.49959C12.3773 5.12958 12.2453 4.69457 12.2453 4.24957C12.2453 3.65283 12.4824 3.08054 12.9044 2.65858C13.3263 2.23663 13.8986 1.99958 14.4953 1.99958ZM3.99534 13.2495C3.55033 13.2495 3.11532 13.1176 2.74531 12.8703C2.3753 12.6231 2.08691 12.2717 1.91661 11.8606C1.74632 11.4494 1.70176 10.997 1.78858 10.5606C1.87539 10.1241 2.08968 9.72322 2.40435 9.40855C2.71902 9.09388 3.11993 8.87959 3.55639 8.79278C3.99285 8.70596 4.44525 8.75052 4.85638 8.92081C5.26751 9.09111 5.61892 9.3795 5.86615 9.74951C6.11338 10.1195 6.24534 10.5545 6.24534 10.9995C6.24534 11.5963 6.00829 12.1686 5.58633 12.5905C5.16438 13.0125 4.59208 13.2495 3.99534 13.2495ZM14.4953 19.9995C14.0503 19.9995 13.6153 19.8675 13.2453 19.6203C12.8753 19.3731 12.5869 19.0217 12.4166 18.6105C12.2463 18.1994 12.2018 17.747 12.2886 17.3105C12.3754 16.8741 12.5897 16.4732 12.9044 16.1585C13.219 15.8438 13.6199 15.6296 14.0564 15.5427C14.4928 15.4559 14.9452 15.5005 15.3564 15.6708C15.7675 15.8411 16.1189 16.1295 16.3661 16.4995C16.6134 16.8695 16.7453 17.3045 16.7453 17.7495C16.7453 18.3462 16.5083 18.9185 16.0863 19.3405C15.6644 19.7624 15.0921 19.9995 14.4953 19.9995Z" fill="#1B3562"/>
</svg>
