<svg width="24" height="25" viewBox="0 0 24 25" fill="none" xmlns="http://www.w3.org/2000/svg">
<path d="M21.9843 11.2231L17.7562 14.9131L19.0228 20.4069C19.0898 20.6941 19.0707 20.9946 18.9678 21.271C18.8649 21.5474 18.6828 21.7874 18.4443 21.9608C18.2058 22.1343 17.9215 22.2336 17.6268 22.2464C17.3322 22.2591 17.0404 22.1847 16.7878 22.0325L11.9962 19.1262L7.21495 22.0325C6.96236 22.1847 6.6705 22.2591 6.37586 22.2464C6.08122 22.2336 5.79688 22.1343 5.55838 21.9608C5.31988 21.7874 5.13781 21.5474 5.03493 21.271C4.93205 20.9946 4.91292 20.6941 4.97995 20.4069L6.24464 14.9187L2.01557 11.2231C1.79189 11.0302 1.63015 10.7755 1.55063 10.4911C1.4711 10.2066 1.47733 9.90498 1.56855 9.62404C1.65976 9.34309 1.83189 9.09533 2.06335 8.91182C2.29481 8.72832 2.57529 8.61723 2.86964 8.5925L8.44401 8.10968L10.6199 2.91968C10.7336 2.64735 10.9252 2.41473 11.1708 2.25111C11.4164 2.08749 11.7049 2.00018 11.9999 2.00018C12.295 2.00018 12.5835 2.08749 12.8291 2.25111C13.0747 2.41473 13.2663 2.64735 13.3799 2.91968L15.5624 8.10968L21.1349 8.5925C21.4293 8.61723 21.7098 8.72832 21.9412 8.91182C22.1727 9.09533 22.3448 9.34309 22.436 9.62404C22.5272 9.90498 22.5335 10.2066 22.454 10.4911C22.3744 10.7755 22.2127 11.0302 21.989 11.2231H21.9843Z" fill="#30303B"/>
</svg>
