<svg width="14" height="14" viewBox="0 0 14 14" fill="none" xmlns="http://www.w3.org/2000/svg">
<path d="M5.12515 0.124756H1.37515C1.04363 0.124756 0.72569 0.256451 0.491269 0.490871C0.256849 0.72529 0.125153 1.04323 0.125153 1.37475V5.12473C0.125153 5.45625 0.256849 5.77419 0.491269 6.00861C0.72569 6.24303 1.04363 6.37472 1.37515 6.37472H5.12515C5.45667 6.37472 5.77462 6.24303 6.00904 6.00861C6.24346 5.77419 6.37515 5.45625 6.37515 5.12473V1.37475C6.37515 1.04323 6.24346 0.72529 6.00904 0.490871C5.77462 0.256451 5.45667 0.124756 5.12515 0.124756ZM5.12515 5.12473H1.37515V1.37475H5.12515V5.12473ZM12.6252 0.124756H8.87515C8.54363 0.124756 8.22569 0.256451 7.99127 0.490871C7.75685 0.72529 7.62515 1.04323 7.62515 1.37475V5.12473C7.62515 5.45625 7.75685 5.77419 7.99127 6.00861C8.22569 6.24303 8.54363 6.37472 8.87515 6.37472H12.6252C12.9567 6.37472 13.2746 6.24303 13.509 6.00861C13.7435 5.77419 13.8752 5.45625 13.8752 5.12473V1.37475C13.8752 1.04323 13.7435 0.72529 13.509 0.490871C13.2746 0.256451 12.9567 0.124756 12.6252 0.124756ZM12.6252 5.12473H8.87515V1.37475H12.6252V5.12473ZM5.12515 7.62472H1.37515C1.04363 7.62472 0.72569 7.75641 0.491269 7.99083C0.256849 8.22525 0.125153 8.54319 0.125153 8.87471V12.6247C0.125153 12.9562 0.256849 13.2742 0.491269 13.5086C0.72569 13.743 1.04363 13.8747 1.37515 13.8747H5.12515C5.45667 13.8747 5.77462 13.743 6.00904 13.5086C6.24346 13.2742 6.37515 12.9562 6.37515 12.6247V8.87471C6.37515 8.54319 6.24346 8.22525 6.00904 7.99083C5.77462 7.75641 5.45667 7.62472 5.12515 7.62472ZM5.12515 12.6247H1.37515V8.87471H5.12515V12.6247ZM12.6252 7.62472H8.87515C8.54363 7.62472 8.22569 7.75641 7.99127 7.99083C7.75685 8.22525 7.62515 8.54319 7.62515 8.87471V12.6247C7.62515 12.9562 7.75685 13.2742 7.99127 13.5086C8.22569 13.743 8.54363 13.8747 8.87515 13.8747H12.6252C12.9567 13.8747 13.2746 13.743 13.509 13.5086C13.7435 13.2742 13.8752 12.9562 13.8752 12.6247V8.87471C13.8752 8.54319 13.7435 8.22525 13.509 7.99083C13.2746 7.75641 12.9567 7.62472 12.6252 7.62472ZM12.6252 12.6247H8.87515V8.87471H12.6252V12.6247Z" fill="black"/>
</svg>
