<svg width="20" height="20" viewBox="0 0 20 20" fill="none" xmlns="http://www.w3.org/2000/svg">
<g clip-path="url(#clip0_17_147)">
<path d="M15.7436 18.641H4.25641C3.00923 18.641 2 17.6318 2 16.3846V3.25641C2 2.00923 3.00923 1 4.25641 1H15.7436C16.9908 1 18 2.00923 18 3.25641V16.3846C18 17.6318 16.9908 18.641 15.7436 18.641ZM4.25641 2.23077C3.69026 2.23077 3.23077 2.69026 3.23077 3.25641V16.3846C3.23077 16.9508 3.69026 17.4103 4.25641 17.4103H15.7436C16.3097 17.4103 16.7692 16.9508 16.7692 16.3846V3.25641C16.7692 2.69026 16.3097 2.23077 15.7436 2.23077H4.25641ZM14.9231 4.69231C14.7754 4.69231 14.6277 4.64308 14.5128 4.53641C14.2585 4.30667 14.2421 3.92103 14.4718 3.67487C14.7015 3.41231 15.0872 3.3959 15.3415 3.62564C15.5959 3.85538 15.6123 4.24103 15.3826 4.49538C15.2595 4.62667 15.0872 4.70051 14.9231 4.70051V4.69231Z" fill="black"/>
<path d="M10 16.1795C6.9477 16.1795 4.46155 13.6933 4.46155 10.641C4.46155 7.58869 6.9477 5.10254 10 5.10254C13.0523 5.10254 15.5385 7.58869 15.5385 10.641C15.5385 13.6933 13.0523 16.1795 10 16.1795ZM10 6.33331C7.62873 6.33331 5.69232 8.26151 5.69232 10.641C5.69232 13.0205 7.62873 14.9487 10 14.9487C12.3713 14.9487 14.3077 13.0205 14.3077 10.641C14.3077 8.26151 12.3713 6.33331 10 6.33331Z" fill="black"/>
<path d="M9.99999 13.7179C8.30153 13.7179 6.92307 12.3395 6.92307 10.641C6.92307 10.3046 7.20204 10.0256 7.53845 10.0256C7.87486 10.0256 8.15383 10.3046 8.15383 10.641C8.15383 11.6585 8.98255 12.4872 9.99999 12.4872C10.3364 12.4872 10.6154 12.7661 10.6154 13.1026C10.6154 13.439 10.3364 13.7179 9.99999 13.7179Z" fill="black"/>
</g>
<defs>
<clipPath id="clip0_17_147">
<rect width="16" height="17.641" fill="white" transform="translate(2 1)"/>
</clipPath>
</defs>
</svg>
